<?xml version="1.0" standalone="no"?>
<!DOCTYPE svg PUBLIC "-//W3C//DTD SVG 20010904//EN"
 "http://www.w3.org/TR/2001/REC-SVG-20010904/DTD/svg10.dtd">
<svg version="1.0" xmlns="http://www.w3.org/2000/svg"
 width="1200.000000pt" height="574.000000pt" viewBox="0 0 1200.000000 574.000000"
 preserveAspectRatio="xMidYMid meet">

<g transform="translate(0.000000,574.000000) scale(0.100000,-0.100000)"
fill="#000000" stroke="none">
<path d="M11200 5363 c-25 -10 -64 -43 -82 -71 -16 -24 -18 -54 -18 -245 0
-241 3 -257 62 -299 31 -22 41 -23 200 -23 185 0 197 4 246 75 21 32 22 42 22
245 0 204 -1 213 -23 246 -12 18 -38 44 -56 56 -32 22 -44 23 -185 22 -83 0
-158 -3 -166 -6z m151 -225 c30 -18 67 -39 82 -47 39 -21 67 -49 61 -64 -7
-19 -191 -119 -211 -115 -16 3 -18 17 -21 118 -1 62 0 120 2 127 8 20 27 16
87 -19z"/>
<path d="M7674 4941 c-17 -10 -42 -34 -55 -53 -23 -32 -24 -38 -27 -273 -1
-132 -4 -250 -7 -262 -5 -20 -11 -21 -137 -25 -155 -4 -194 -18 -236 -81 -24
-35 -27 -52 -31 -145 -8 -238 41 -292 267 -292 78 0 122 -4 130 -12 9 -9 12
-166 12 -643 0 -346 5 -673 10 -726 28 -286 157 -514 356 -631 135 -79 320
-118 558 -118 169 0 222 17 261 85 23 39 25 52 25 174 0 135 -5 156 -44 199
-41 46 -72 54 -240 62 -178 9 -212 18 -275 75 -44 40 -76 108 -97 204 -19 93
-21 1303 -1 1319 8 7 107 12 272 14 241 3 263 5 300 24 24 12 49 37 62 60 20
35 23 53 23 175 0 125 -2 139 -22 169 -30 44 -66 69 -114 80 -21 5 -148 10
-280 10 -211 0 -243 2 -248 16 -3 9 -6 125 -6 258 0 236 -1 244 -23 277 -12
18 -38 44 -56 56 -32 22 -44 23 -190 23 -136 0 -160 -3 -187 -19z"/>
<path d="M450 3020 l0 -1340 1370 0 1370 0 0 250 0 250 94 0 c127 0 183 22
219 85 9 14 14 184 17 585 5 553 6 566 28 625 12 33 32 80 45 105 29 58 117
152 172 185 142 83 412 87 568 8 105 -52 189 -160 232 -295 23 -74 25 -93 25
-289 l0 -209 265 0 265 0 0 238 c0 221 -2 243 -25 330 -82 306 -268 540 -532
671 -172 85 -292 111 -510 111 -134 0 -173 -4 -258 -25 -55 -13 -123 -33 -151
-44 -156 -60 -323 -181 -422 -306 l-32 -40 0 223 0 222 -1370 0 -1370 0 0
-1340z"/>
<path d="M10099 4319 c-426 -45 -712 -312 -796 -743 -16 -83 -18 -168 -18
-926 0 -801 1 -837 19 -873 11 -22 37 -51 59 -65 39 -26 45 -27 192 -27 149 0
152 0 194 28 80 53 75 -1 81 932 l5 830 23 64 c25 68 69 140 112 180 14 13 54
38 89 54 63 30 70 31 250 36 212 7 238 15 278 87 20 35 23 53 23 175 0 125 -2
139 -22 169 -30 44 -66 69 -114 80 -47 11 -268 11 -375 -1z"/>
<path d="M11235 4321 c-53 -14 -93 -40 -114 -74 l-21 -34 0 -1210 0 -1210 23
-33 c43 -65 74 -75 237 -75 163 0 201 11 243 69 l22 31 0 1222 0 1222 -30 31
c-52 55 -79 63 -210 66 -66 2 -133 0 -150 -5z"/>
<path d="M6260 3808 c-33 -17 -51 -35 -67 -68 -23 -44 -23 -45 -23 -566 0
-585 -2 -612 -67 -743 -43 -86 -110 -159 -179 -194 -154 -77 -419 -74 -558 8
-59 35 -138 120 -172 186 -48 96 -64 178 -71 367 l-6 172 -265 0 -265 0 6
-197 c6 -201 17 -275 59 -403 103 -318 364 -562 698 -656 81 -22 121 -27 266
-31 152 -5 184 -3 275 17 422 92 716 398 794 825 18 100 22 1155 4 1202 -6 15
-20 39 -32 51 -40 43 -80 52 -221 52 -117 0 -137 -3 -176 -22z"/>
<path d="M4182 3337 c-22 -23 -22 -29 -22 -333 l0 -311 25 -23 c31 -29 80 -29
109 0 20 20 21 29 21 336 l0 316 -24 19 c-32 26 -82 25 -109 -4z"/>
<path d="M5772 3337 c-22 -23 -22 -29 -22 -335 0 -299 1 -313 20 -332 29 -29
82 -30 113 -3 15 15 17 44 17 339 0 322 0 323 -22 338 -33 23 -81 20 -106 -7z"/>
<path d="M3812 3220 c-21 -20 -22 -28 -22 -215 0 -182 1 -196 20 -215 24 -24
86 -27 118 -4 22 15 22 20 22 219 0 199 0 204 -22 219 -32 23 -90 20 -116 -4z"/>
<path d="M5412 3224 c-22 -15 -22 -20 -22 -219 0 -199 0 -204 22 -219 12 -9
38 -16 58 -16 20 0 46 7 58 16 22 15 22 20 22 219 0 199 0 204 -22 219 -12 9
-38 16 -58 16 -20 0 -46 -7 -58 -16z"/>
<path d="M0 520 l0 -520 6000 0 6000 0 0 520 0 520 -6000 0 -6000 0 0 -520z"/>
</g>
</svg>
